<svg width="400" height="300" xmlns="http://www.w3.org/2000/svg">
  <defs>
    <linearGradient id="houseGrad" x1="0%" y1="0%" x2="100%" y2="100%">
      <stop offset="0%" style="stop-color:#8FBC8F;stop-opacity:1" />
      <stop offset="100%" style="stop-color:#228B22;stop-opacity:1" />
    </linearGradient>
  </defs>
  <rect width="400" height="300" fill="#F0F8FF"/>
  
  <!-- Maison principale -->
  <rect x="120" y="140" width="160" height="120" fill="#DEB887" stroke="#8B7355" stroke-width="2"/>
  
  <!-- Toit -->
  <polygon points="110,140 200,80 290,140" fill="#A0522D"/>
  
  <!-- Porte -->
  <rect x="170" y="200" width="30" height="60" fill="#8B4513"/>
  <circle cx="195" cy="230" r="2" fill="#FFD700"/>
  
  <!-- Fenêtres -->
  <rect x="135" y="160" width="25" height="25" fill="#87CEEB" stroke="#4682B4" stroke-width="1"/>
  <rect x="240" y="160" width="25" height="25" fill="#87CEEB" stroke="#4682B4" stroke-width="1"/>
  <line x1="147.5" y1="160" x2="147.5" y2="185" stroke="#4682B4" stroke-width="1"/>
  <line x1="135" y1="172.5" x2="160" y2="172.5" stroke="#4682B4" stroke-width="1"/>
  <line x1="252.5" y1="160" x2="252.5" y2="185" stroke="#4682B4" stroke-width="1"/>
  <line x1="240" y1="172.5" x2="265" y2="172.5" stroke="#4682B4" stroke-width="1"/>
  
  <!-- Palmiers -->
  <rect x="50" y="200" width="8" height="60" fill="#8B4513"/>
  <circle cx="54" cy="190" r="15" fill="#228B22"/>
  <rect x="340" y="210" width="8" height="50" fill="#8B4513"/>
  <circle cx="344" cy="200" r="12" fill="#228B22"/>
  
  <!-- Clés -->
  <circle cx="80" cy="120" r="8" fill="#FFD700"/>
  <rect x="85" y="115" width="20" height="4" fill="#FFD700"/>
  <rect x="100" y="112" width="4" height="4" fill="#FFD700"/>
  <rect x="100" y="118" width="4" height="4" fill="#FFD700"/>
  
  <text x="200" y="50" font-family="Arial, sans-serif" font-size="16" font-weight="bold" text-anchor="middle" fill="#228B22">GUYANE IMMOBILIER</text>
  <text x="200" y="290" font-family="Arial, sans-serif" font-size="12" text-anchor="middle" fill="#8B4513">Votre projet, notre expertise</text>
</svg>