<svg width="400" height="300" xmlns="http://www.w3.org/2000/svg">
  <defs>
    <linearGradient id="restaurantGrad" x1="0%" y1="0%" x2="100%" y2="100%">
      <stop offset="0%" style="stop-color:#FF4500;stop-opacity:1" />
      <stop offset="100%" style="stop-color:#FF8C00;stop-opacity:1" />
    </linearGradient>
  </defs>
  <rect width="400" height="300" fill="#FFFAF0"/>
  
  <!-- Assiette -->
  <circle cx="200" cy="150" r="60" fill="#F5F5F5" stroke="#DDD" stroke-width="2"/>
  <circle cx="200" cy="150" r="45" fill="#FFE4B5"/>
  
  <!-- Poulet boucané -->
  <ellipse cx="180" cy="140" rx="20" ry="15" fill="#8B4513"/>
  <ellipse cx="220" cy="160" rx="18" ry="12" fill="#A0522D"/>
  
  <!-- Riz -->
  <circle cx="170" cy="170" r="8" fill="#F5F5F5"/>
  <circle cx="185" cy="175" r="6" fill="#F5F5F5"/>
  <circle cx="200" cy="180" r="7" fill="#F5F5F5"/>
  
  <!-- Légumes -->
  <ellipse cx="230" cy="140" rx="12" ry="8" fill="#228B22"/>
  <ellipse cx="215" cy="130" rx="10" ry="6" fill="#FF6347"/>
  
  <!-- Toucan stylisé -->
  <ellipse cx="100" cy="80" rx="25" ry="20" fill="#FFD700"/>
  <ellipse cx="110" cy="75" rx="8" ry="6" fill="#FF4500"/>
  <circle cx="115" cy="75" r="2" fill="#000"/>
  <path d="M 125 75 L 140 70 L 140 80 Z" fill="#FF8C00"/>
  
  <text x="200" y="50" font-family="Arial, sans-serif" font-size="20" font-weight="bold" text-anchor="middle" fill="#FF4500">RESTAURANT LE TOUCAN</text>
  <text x="200" y="270" font-family="Arial, sans-serif" font-size="14" text-anchor="middle" fill="#8B4513">Saveurs Créoles Authentiques</text>
</svg>