<svg width="512" height="512" viewBox="0 0 512 512" fill="none" xmlns="http://www.w3.org/2000/svg">
  <!-- Fond principal -->
  <rect width="512" height="512" rx="80" fill="url(#gradient)"/>
  
  <!-- Icône de marketplace -->
  <g transform="translate(80, 80)">
    <!-- Panier de shopping principal -->
    <path d="M50 100h240l20-60H40l-10-30H10v20h30l40 120h160v-20H80l-10-30h180z" fill="white" fill-opacity="0.95"/>
    <circle cx="100" cy="280" r="20" fill="white"/>
    <circle cx="240" cy="280" r="20" fill="white"/>
    
    <!-- Éléments de contenu du panier -->
    <rect x="120" y="60" width="80" height="10" rx="5" fill="white" fill-opacity="0.8"/>
    <rect x="120" y="80" width="60" height="10" rx="5" fill="white" fill-opacity="0.8"/>
    <rect x="120" y="100" width="70" height="10" rx="5" fill="white" fill-opacity="0.8"/>
    <rect x="120" y="120" width="50" height="10" rx="5" fill="white" fill-opacity="0.8"/>
    
    <!-- Badge de notification/publicité -->
    <circle cx="280" cy="50" r="30" fill="#10B981"/>
    <path d="M268 50l8 8 16-16" stroke="white" stroke-width="4" stroke-linecap="round" stroke-linejoin="round"/>
    
    <!-- Éléments décoratifs supplémentaires -->
    <circle cx="320" cy="120" r="15" fill="#F59E0B" fill-opacity="0.8"/>
    <circle cx="300" cy="160" r="10" fill="#EF4444" fill-opacity="0.8"/>
    <circle cx="340" cy="180" r="12" fill="#8B5CF6" fill-opacity="0.8"/>
  </g>
  
  <!-- Dégradé -->
  <defs>
    <linearGradient id="gradient" x1="0%" y1="0%" x2="100%" y2="100%">
      <stop offset="0%" style="stop-color:#4F46E5;stop-opacity:1" />
      <stop offset="30%" style="stop-color:#7C3AED;stop-opacity:1" />
      <stop offset="70%" style="stop-color:#06B6D4;stop-opacity:1" />
      <stop offset="100%" style="stop-color:#10B981;stop-opacity:1" />
    </linearGradient>
  </defs>
</svg>