<svg width="152" height="152" viewBox="0 0 152 152" fill="none" xmlns="http://www.w3.org/2000/svg">
  <!-- Fond principal -->
  <rect width="152" height="152" rx="28" fill="url(#gradient)"/>
  
  <!-- Icône de marketplace -->
  <g transform="translate(26, 26)">
    <!-- Panier de shopping -->
    <path d="M16 34h68l8-20H14l-4-10H4v8h10l16 38h56v-8H30l-4-8h60z" fill="white" fill-opacity="0.9"/>
    <circle cx="32" cy="88" r="6" fill="white"/>
    <circle cx="80" cy="88" r="6" fill="white"/>
    
    <!-- Éléments décoratifs -->
    <rect x="38" y="20" width="26" height="3" rx="1.5" fill="white" fill-opacity="0.7"/>
    <rect x="38" y="26" width="20" height="3" rx="1.5" fill="white" fill-opacity="0.7"/>
    <rect x="38" y="32" width="23" height="3" rx="1.5" fill="white" fill-opacity="0.7"/>
    
    <!-- Badge -->
    <circle cx="88" cy="16" r="12" fill="#10B981"/>
    <path d="M82 16l4 4 6-6" stroke="white" stroke-width="2" stroke-linecap="round" stroke-linejoin="round"/>
  </g>
  
  <!-- Dégradé -->
  <defs>
    <linearGradient id="gradient" x1="0%" y1="0%" x2="100%" y2="100%">
      <stop offset="0%" style="stop-color:#4F46E5;stop-opacity:1" />
      <stop offset="35%" style="stop-color:#7C3AED;stop-opacity:1" />
      <stop offset="70%" style="stop-color:#06B6D4;stop-opacity:1" />
      <stop offset="100%" style="stop-color:#10B981;stop-opacity:1" />
    </linearGradient>
  </defs>
</svg>