<svg width="144" height="144" viewBox="0 0 144 144" fill="none" xmlns="http://www.w3.org/2000/svg">
  <!-- Fond principal -->
  <rect width="144" height="144" rx="24" fill="url(#gradient)"/>
  
  <!-- Icône de marketplace -->
  <g transform="translate(24, 24)">
    <!-- Panier de shopping -->
    <path d="M14 32h64l7-18H12l-3-9H3v7h9l14 36h50v-7H26l-3-9h57z" fill="white" fill-opacity="0.9"/>
    <circle cx="30" cy="84" r="6" fill="white"/>
    <circle cx="75" cy="84" r="6" fill="white"/>
    
    <!-- Éléments décoratifs -->
    <rect x="36" y="18" width="24" height="3" rx="1.5" fill="white" fill-opacity="0.7"/>
    <rect x="36" y="24" width="18" height="3" rx="1.5" fill="white" fill-opacity="0.7"/>
    <rect x="36" y="30" width="21" height="3" rx="1.5" fill="white" fill-opacity="0.7"/>
    
    <!-- Badge -->
    <circle cx="84" cy="14" r="12" fill="#10B981"/>
    <path d="M78 14l3 3 6-6" stroke="white" stroke-width="2" stroke-linecap="round" stroke-linejoin="round"/>
  </g>
  
  <!-- Dégradé -->
  <defs>
    <linearGradient id="gradient" x1="0%" y1="0%" x2="100%" y2="100%">
      <stop offset="0%" style="stop-color:#4F46E5;stop-opacity:1" />
      <stop offset="33%" style="stop-color:#7C3AED;stop-opacity:1" />
      <stop offset="66%" style="stop-color:#06B6D4;stop-opacity:1" />
      <stop offset="100%" style="stop-color:#10B981;stop-opacity:1" />
    </linearGradient>
  </defs>
</svg>