<svg width="128" height="128" viewBox="0 0 128 128" fill="none" xmlns="http://www.w3.org/2000/svg">
  <!-- Fond principal -->
  <rect width="128" height="128" rx="20" fill="url(#gradient)"/>
  
  <!-- Icône de marketplace -->
  <g transform="translate(20, 20)">
    <!-- Panier de shopping -->
    <path d="M12 28h56l6-16H10l-3-8H2v6h8l12 32h44v-6H22l-3-8h50z" fill="white" fill-opacity="0.9"/>
    <circle cx="26" cy="74" r="5" fill="white"/>
    <circle cx="66" cy="74" r="5" fill="white"/>
    
    <!-- Éléments décoratifs -->
    <rect x="32" y="16" width="20" height="3" rx="1.5" fill="white" fill-opacity="0.7"/>
    <rect x="32" y="22" width="16" height="3" rx="1.5" fill="white" fill-opacity="0.7"/>
    <rect x="32" y="28" width="18" height="3" rx="1.5" fill="white" fill-opacity="0.7"/>
    
    <!-- Badge -->
    <circle cx="74" cy="12" r="10" fill="#10B981"/>
    <path d="M69 12l3 3 5-5" stroke="white" stroke-width="2" stroke-linecap="round" stroke-linejoin="round"/>
  </g>
  
  <!-- Dégradé -->
  <defs>
    <linearGradient id="gradient" x1="0%" y1="0%" x2="100%" y2="100%">
      <stop offset="0%" style="stop-color:#4F46E5;stop-opacity:1" />
      <stop offset="40%" style="stop-color:#7C3AED;stop-opacity:1" />
      <stop offset="80%" style="stop-color:#06B6D4;stop-opacity:1" />
      <stop offset="100%" style="stop-color:#10B981;stop-opacity:1" />
    </linearGradient>
  </defs>
</svg>