<svg width="96" height="96" viewBox="0 0 96 96" fill="none" xmlns="http://www.w3.org/2000/svg">
  <!-- Fond principal -->
  <rect width="96" height="96" rx="16" fill="url(#gradient)"/>
  
  <!-- Icône de marketplace -->
  <g transform="translate(16, 16)">
    <!-- Panier de shopping -->
    <path d="M10 20h40l4-12H8l-2-6H2v4h6l8 24h32v-4H16l-2-6h36z" fill="white" fill-opacity="0.9"/>
    <circle cx="20" cy="56" r="4" fill="white"/>
    <circle cx="48" cy="56" r="4" fill="white"/>
    
    <!-- Éléments décoratifs -->
    <rect x="24" y="12" width="16" height="2" rx="1" fill="white" fill-opacity="0.7"/>
    <rect x="24" y="16" width="12" height="2" rx="1" fill="white" fill-opacity="0.7"/>
    <rect x="24" y="20" width="14" height="2" rx="1" fill="white" fill-opacity="0.7"/>
    
    <!-- Badge -->
    <circle cx="54" cy="10" r="8" fill="#10B981"/>
    <path d="M50 10l2 2 4-4" stroke="white" stroke-width="1.5" stroke-linecap="round" stroke-linejoin="round"/>
  </g>
  
  <!-- Dégradé -->
  <defs>
    <linearGradient id="gradient" x1="0%" y1="0%" x2="100%" y2="100%">
      <stop offset="0%" style="stop-color:#4F46E5;stop-opacity:1" />
      <stop offset="50%" style="stop-color:#7C3AED;stop-opacity:1" />
      <stop offset="100%" style="stop-color:#06B6D4;stop-opacity:1" />
    </linearGradient>
  </defs>
</svg>